HIERARCHY
ROOT mixamorig:Hips
{
	OFFSET 0.000000 201.639420 0.000000
	CHANNELS 6 Xposition Yposition Zposition Xrotation Yrotation Zrotation
	JOINT mixamorig:Spine
	{
		OFFSET 0.006200 19.524994 -2.481800
		CHANNELS 3 Xrotation Yrotation Zrotation
		JOINT mixamorig:Spine1
		{
			OFFSET -0.000900 22.835007 -2.825400
			CHANNELS 3 Xrotation Yrotation Zrotation
			JOINT mixamorig:Spine2
			{
				OFFSET -0.020600 26.552490 -3.193300
				CHANNELS 3 Xrotation Yrotation Zrotation
				JOINT mixamorig:Neck
				{
					OFFSET -0.060000 30.701813 1.352200
					CHANNELS 3 Xrotation Yrotation Zrotation
					JOINT mixamorig:Head
					{
						OFFSET -0.087200 22.547607 3.670900
						CHANNELS 3 Xrotation Yrotation Zrotation
						JOINT mixamorig:HeadTop_End
						{
							OFFSET -0.830600 40.355194 7.893500
							CHANNELS 3 Xrotation Yrotation Zrotation
							End Site
							{
								OFFSET 0.000000 30.592346 0.000000
							}
						}
						JOINT mixamorig:RightEye
						{
							OFFSET -6.302100 18.118591 16.197100
							CHANNELS 3 Xrotation Yrotation Zrotation
							End Site
							{
								OFFSET 0.000000 30.592346 0.000000
							}
						}
						JOINT mixamorig:LeftEye
						{
							OFFSET 6.741500 18.382690 16.401899
							CHANNELS 3 Xrotation Yrotation Zrotation
							End Site
							{
								OFFSET 0.000000 30.592346 0.000000
							}
						}
					}
				}
				JOINT mixamorig:LeftShoulder
				{
					OFFSET 11.924900 18.230499 1.425400
					CHANNELS 3 Xrotation Yrotation Zrotation
					JOINT mixamorig:LeftArm
					{
						OFFSET 25.435989 -0.697632 -5.229300
						CHANNELS 3 Xrotation Yrotation Zrotation
						JOINT mixamorig:LeftForeArm
						{
							OFFSET 54.684776 0.000000 0.000000
							CHANNELS 3 Xrotation Yrotation Zrotation
							JOINT mixamorig:LeftHand
							{
								OFFSET 55.098175 0.000000 0.000000
								CHANNELS 3 Xrotation Yrotation Zrotation
								JOINT mixamorig:LeftHandMiddle1
								{
									OFFSET 23.369751 0.000000 0.000000
									CHANNELS 3 Xrotation Yrotation Zrotation
									JOINT mixamorig:LeftHandMiddle2
									{
										OFFSET 6.378677 0.000000 0.000000
										CHANNELS 3 Xrotation Yrotation Zrotation
										JOINT mixamorig:LeftHandMiddle3
										{
											OFFSET 6.148331 0.000000 0.000000
											CHANNELS 3 Xrotation Yrotation Zrotation
											JOINT mixamorig:LeftHandMiddle4
											{
												OFFSET 6.582504 0.000000 0.000000
												CHANNELS 3 Xrotation Yrotation Zrotation
												End Site
												{
													OFFSET -1.168900 6.395691 1.028606
												}
											}
										}
									}
								}
								JOINT mixamorig:LeftHandThumb1
								{
									OFFSET 7.235672 -3.848206 5.434273
									CHANNELS 3 Xrotation Yrotation Zrotation
									JOINT mixamorig:LeftHandThumb2
									{
										OFFSET 6.568451 -3.792297 3.792300
										CHANNELS 3 Xrotation Yrotation Zrotation
										JOINT mixamorig:LeftHandThumb3
										{
											OFFSET 6.063080 -3.500519 3.500518
											CHANNELS 3 Xrotation Yrotation Zrotation
											JOINT mixamorig:LeftHandThumb4
											{
												OFFSET 4.793182 -2.767334 2.767349
												CHANNELS 3 Xrotation Yrotation Zrotation
												End Site
												{
													OFFSET 0.101639 6.054260 1.275483
												}
											}
										}
									}
								}
								JOINT mixamorig:LeftHandIndex1
								{
									OFFSET 23.101074 -0.309540 4.992809
									CHANNELS 3 Xrotation Yrotation Zrotation
									JOINT mixamorig:LeftHandIndex2
									{
										OFFSET 6.226883 0.000000 0.000000
										CHANNELS 3 Xrotation Yrotation Zrotation
										JOINT mixamorig:LeftHandIndex3
										{
											OFFSET 6.094330 0.000000 0.000000
											CHANNELS 3 Xrotation Yrotation Zrotation
											JOINT mixamorig:LeftHandIndex4
											{
												OFFSET 5.482605 0.000000 0.000000
												CHANNELS 3 Xrotation Yrotation Zrotation
												End Site
												{
													OFFSET -1.427902 5.233032 0.797164
												}
											}
										}
									}
								}
								JOINT mixamorig:LeftHandRing1
								{
									OFFSET 22.299240 0.021149 -3.964172
									CHANNELS 3 Xrotation Yrotation Zrotation
									JOINT mixamorig:LeftHandRing2
									{
										OFFSET 6.321869 0.000000 0.000000
										CHANNELS 3 Xrotation Yrotation Zrotation
										JOINT mixamorig:LeftHandRing3
										{
											OFFSET 5.899796 0.000000 0.000000
											CHANNELS 3 Xrotation Yrotation Zrotation
											JOINT mixamorig:LeftHandRing4
											{
												OFFSET 6.517899 0.000000 0.000000
												CHANNELS 3 Xrotation Yrotation Zrotation
												End Site
												{
													OFFSET -1.637299 6.232208 0.980890
												}
											}
										}
									}
								}
								JOINT mixamorig:LeftHandPinky1
								{
									OFFSET 20.463791 -0.302338 -8.562233
									CHANNELS 3 Xrotation Yrotation Zrotation
									JOINT mixamorig:LeftHandPinky2
									{
										OFFSET 6.908646 0.000000 0.000000
										CHANNELS 3 Xrotation Yrotation Zrotation
										JOINT mixamorig:LeftHandPinky3
										{
											OFFSET 4.622849 0.000000 0.000000
											CHANNELS 3 Xrotation Yrotation Zrotation
											JOINT mixamorig:LeftHandPinky4
											{
												OFFSET 5.216080 0.000000 0.000000
												CHANNELS 3 Xrotation Yrotation Zrotation
												End Site
												{
													OFFSET -0.606308 5.116241 0.814926
												}
											}
										}
									}
								}
							}
						}
					}
				}
				JOINT mixamorig:RightShoulder
				{
					OFFSET -12.001300 18.284088 1.348900
					CHANNELS 3 Xrotation Yrotation Zrotation
					JOINT mixamorig:RightArm
					{
						OFFSET -25.308500 -0.751312 -5.164599
						CHANNELS 3 Xrotation Yrotation Zrotation
						JOINT mixamorig:RightForeArm
						{
							OFFSET -54.684429 0.000000 0.000000
							CHANNELS 3 Xrotation Yrotation Zrotation
							JOINT mixamorig:RightHand
							{
								OFFSET -55.150291 0.000000 0.000000
								CHANNELS 3 Xrotation Yrotation Zrotation
								JOINT mixamorig:RightHandMiddle1
								{
									OFFSET -23.317566 0.000000 0.000000
									CHANNELS 3 Xrotation Yrotation Zrotation
									JOINT mixamorig:RightHandMiddle2
									{
										OFFSET -6.378403 0.000000 0.000000
										CHANNELS 3 Xrotation Yrotation Zrotation
										JOINT mixamorig:RightHandMiddle3
										{
											OFFSET -6.148193 0.000000 0.000000
											CHANNELS 3 Xrotation Yrotation Zrotation
											JOINT mixamorig:RightHandMiddle4
											{
												OFFSET -6.583389 0.000000 0.000000
												CHANNELS 3 Xrotation Yrotation Zrotation
												End Site
												{
													OFFSET 1.171692 6.395905 1.029786
												}
											}
										}
									}
								}
								JOINT mixamorig:RightHandThumb1
								{
									OFFSET -7.190521 -3.860474 5.435846
									CHANNELS 3 Xrotation Yrotation Zrotation
									JOINT mixamorig:RightHandThumb2
									{
										OFFSET -6.567429 -3.791718 3.791708
										CHANNELS 3 Xrotation Yrotation Zrotation
										JOINT mixamorig:RightHandThumb3
										{
											OFFSET -6.062469 -3.500153 3.500166
											CHANNELS 3 Xrotation Yrotation Zrotation
											JOINT mixamorig:RightHandThumb4
											{
												OFFSET -4.792618 -2.767029 2.767022
												CHANNELS 3 Xrotation Yrotation Zrotation
												End Site
												{
													OFFSET -0.100327 6.053253 1.276754
												}
											}
										}
									}
								}
								JOINT mixamorig:RightHandIndex1
								{
									OFFSET -23.048981 -0.310791 4.992554
									CHANNELS 3 Xrotation Yrotation Zrotation
									JOINT mixamorig:RightHandIndex2
									{
										OFFSET -6.227539 0.000000 0.000000
										CHANNELS 3 Xrotation Yrotation Zrotation
										JOINT mixamorig:RightHandIndex3
										{
											OFFSET -6.095047 0.000000 0.000000
											CHANNELS 3 Xrotation Yrotation Zrotation
											JOINT mixamorig:RightHandIndex4
											{
												OFFSET -5.484772 0.000000 0.000000
												CHANNELS 3 Xrotation Yrotation Zrotation
												End Site
												{
													OFFSET 1.420593 5.237305 0.797056
												}
											}
										}
									}
								}
								JOINT mixamorig:RightHandRing1
								{
									OFFSET -22.246323 0.020569 -3.963762
									CHANNELS 3 Xrotation Yrotation Zrotation
									JOINT mixamorig:RightHandRing2
									{
										OFFSET -6.322128 0.000000 0.000000
										CHANNELS 3 Xrotation Yrotation Zrotation
										JOINT mixamorig:RightHandRing3
										{
											OFFSET -5.900024 0.000000 0.000000
											CHANNELS 3 Xrotation Yrotation Zrotation
											JOINT mixamorig:RightHandRing4
											{
												OFFSET -6.518356 0.000000 0.000000
												CHANNELS 3 Xrotation Yrotation Zrotation
												End Site
												{
													OFFSET 1.636398 6.232697 0.982186
												}
											}
										}
									}
								}
								JOINT mixamorig:RightHandPinky1
								{
									OFFSET -20.411011 -0.303314 -8.561701
									CHANNELS 3 Xrotation Yrotation Zrotation
									JOINT mixamorig:RightHandPinky2
									{
										OFFSET -6.907349 0.000000 0.000000
										CHANNELS 3 Xrotation Yrotation Zrotation
										JOINT mixamorig:RightHandPinky3
										{
											OFFSET -4.623840 0.000000 0.000000
											CHANNELS 3 Xrotation Yrotation Zrotation
											JOINT mixamorig:RightHandPinky4
											{
												OFFSET -5.218353 0.000000 0.000000
												CHANNELS 3 Xrotation Yrotation Zrotation
												End Site
												{
													OFFSET 0.602097 5.118835 0.816273
												}
											}
										}
									}
								}
							}
						}
					}
				}
			}
		}
	}
	JOINT mixamorig:LeftUpLeg
	{
		OFFSET 18.168400 -13.561905 -0.039000
		CHANNELS 3 Xrotation Yrotation Zrotation
		JOINT mixamorig:LeftLeg
		{
			OFFSET 0.577358 -80.825211 -3.695000
			CHANNELS 3 Xrotation Yrotation Zrotation
			JOINT mixamorig:LeftFoot
			{
				OFFSET -0.577356 -83.370262 -6.520700
				CHANNELS 3 Xrotation Yrotation Zrotation
				JOINT mixamorig:LeftToeBase
				{
					OFFSET 0.750401 -20.798306 25.135401
					CHANNELS 3 Xrotation Yrotation Zrotation
					JOINT mixamorig:LeftToe_End
					{
						OFFSET -0.000500 0.001200 19.917799
						CHANNELS 3 Xrotation Yrotation Zrotation
						End Site
						{
							OFFSET 0.000000 19.917805 0.000000
						}
					}
				}
			}
		}
	}
	JOINT mixamorig:RightUpLeg
	{
		OFFSET -18.162500 -13.585098 -0.041000
		CHANNELS 3 Xrotation Yrotation Zrotation
		JOINT mixamorig:RightLeg
		{
			OFFSET -0.595024 -80.945297 -3.631900
			CHANNELS 3 Xrotation Yrotation Zrotation
			JOINT mixamorig:RightFoot
			{
				OFFSET 0.595024 -83.218193 -6.561200
				CHANNELS 3 Xrotation Yrotation Zrotation
				JOINT mixamorig:RightToeBase
				{
					OFFSET -0.753601 -20.807106 25.115000
					CHANNELS 3 Xrotation Yrotation Zrotation
					JOINT mixamorig:RightToe_End
					{
						OFFSET 0.000299 0.001700 19.918200
						CHANNELS 3 Xrotation Yrotation Zrotation
						End Site
						{
							OFFSET 0.000000 19.918203 0.000000
						}
					}
				}
			}
		}
	}
}
MOTION
Frames: 4
Frame Time: 0.033333
-0.095554 198.611115 0.300026 -1.606145 -0.198874 -1.094568 0.191799 -1.799794 3.778400 2.254536 -0.316115 -2.050617 2.246122 -0.332642 -2.056903 -2.537227 -0.748169 1.197477 5.059779 -2.534728 5.564111 -0.000000 0.000000 0.000000 -0.000000 0.000000 0.000000 -0.000000 0.000000 0.000000 1.331186 -2.264910 -3.392898 21.946812 -64.415610 -48.526899 -0.000014 -13.090894 -0.000005 13.050787 -6.924590 2.109451 -0.373549 3.440559 5.911517 0.814002 3.252586 -28.093266 0.053695 0.860074 -7.145985 -0.000000 0.000000 0.000000 9.364521 9.133482 -5.436818 3.080234 17.459391 0.296984 -4.662945 -5.637103 3.514232 0.000001 0.000001 0.000001 -0.801572 2.510007 13.795721 1.084897 3.714951 -32.549444 0.038235 0.726062 -6.027781 0.000000 0.000000 0.000001 0.269465 4.439829 -3.416159 0.640684 2.905212 -24.867539 0.041487 0.756251 -6.279655 -0.000001 -0.000001 -0.000000 1.700980 9.163192 -10.886028 0.527370 -1.423594 -22.892713 0.022407 0.556235 -4.614237 0.000000 0.000000 -0.000001 0.306281 0.327981 11.417633 25.588834 56.171773 41.943003 -0.000008 22.799190 -0.000009 6.935044 4.957492 -3.260619 1.437090 -5.383364 18.560443 0.927252 -3.474262 29.879390 0.134451 -0.863350 7.187447 0.000000 0.000001 -0.000004 12.584474 -24.726661 4.218743 7.463155 -9.463517 -1.323156 -2.563204 2.275394 -2.592220 -0.000001 -0.000001 -0.000001 0.903870 -4.815660 12.393442 1.346068 -4.116701 36.199306 0.065296 -0.952538 7.841398 0.000002 -0.000001 -0.000001 2.235211 -6.053689 26.850331 0.539155 -2.689194 22.669768 0.125550 -0.519172 4.331011 -0.000001 0.000000 -0.000001 3.068194 -6.583418 34.736880 0.252571 -1.860530 15.459160 0.002915 -0.201766 1.655807 -0.000001 0.000001 -0.000001 -14.098676 9.656956 4.816072 22.248327 5.511995 1.547002 -6.856980 -0.219511 -3.167391 -0.145926 0.000002 -0.000000 0.000000 -0.000000 0.000000 -12.316212 -12.034596 -3.247232 19.509353 0.742686 -1.924171 -5.794957 1.922716 3.186381 -0.167908 -0.000007 -0.000000 0.000000 -0.000002 0.000000 
-0.104580 198.611130 0.314151 -1.585272 -0.201203 -1.115631 0.124640 -1.793837 3.795056 2.289086 -0.316527 -2.040310 2.280725 -0.333115 -2.046690 -2.567498 -0.736210 1.125145 5.091246 -2.582553 5.591749 -0.000000 0.000000 0.000000 -0.000000 0.000000 0.000000 -0.000000 0.000000 0.000000 1.338206 -2.287398 -3.458109 21.915142 -64.384703 -48.533811 -0.000024 -13.020008 -0.000008 13.087300 -6.931288 2.068214 -0.371096 3.446762 5.869656 0.803747 3.233382 -27.912437 0.052091 0.847076 -7.037330 0.000001 -0.000000 -0.000000 9.311704 9.144639 -5.308360 3.080250 17.459372 0.296966 -4.676683 -5.661729 3.516694 0.000002 -0.000002 -0.000000 -0.798918 2.519336 13.731534 1.072813 3.695973 -32.362512 0.037007 0.714320 -5.929966 -0.000000 -0.000000 0.000000 0.270840 4.442889 -3.432868 0.631292 2.884876 -24.681517 0.040015 0.742809 -6.167536 -0.000000 -0.000000 0.000001 1.700689 9.164265 -10.882372 0.518197 -1.445454 -22.696442 0.021350 0.543305 -4.506772 0.000000 0.000000 -0.000001 0.299994 0.292107 11.417995 25.684585 56.201921 41.820552 -0.000001 22.825787 -0.000013 7.031309 4.857485 -3.247247 1.426712 -5.371054 18.458818 0.933051 -3.484241 29.974326 0.136625 -0.873613 7.274191 0.000000 0.000000 0.000002 12.561508 -24.693287 4.211127 7.472231 -9.473360 -1.328817 -2.561835 2.272994 -2.591837 0.000000 -0.000002 0.000000 0.886098 -4.791456 12.187887 1.361025 -4.137025 36.407220 0.067557 -0.968867 7.976656 0.000002 -0.000001 -0.000002 2.235922 -6.052641 26.870103 0.538118 -2.686733 22.647702 0.126682 -0.520770 4.345087 0.000000 0.000000 0.000000 3.080207 -6.588840 34.858458 0.248446 -1.845653 15.332409 0.002777 -0.197294 1.619166 -0.000001 -0.000000 0.000000 -14.125337 9.588577 4.829377 22.269347 5.553625 1.545348 -6.868351 -0.199418 -3.181035 -0.147787 0.000002 0.000000 0.000000 0.000002 0.000000 -12.318245 -12.048337 -3.223744 19.485433 0.649206 -1.921803 -5.788374 2.008598 3.192143 -0.174961 -0.000003 0.000001 -0.000000 0.000001 -0.000000 
-0.113266 198.611755 0.324118 -1.564996 -0.208726 -1.137240 0.055652 -1.797715 3.792495 2.305529 -0.318200 -2.049864 2.297122 -0.334640 -2.056342 -2.521962 -0.734578 1.129338 5.087397 -2.576614 5.595778 -0.000000 -0.000000 0.000000 -0.000000 -0.000000 0.000000 -0.000000 -0.000000 0.000000 1.336775 -2.283367 -3.442340 21.963534 -64.317972 -48.511979 0.000004 -13.094502 0.000018 13.068466 -6.907212 1.982021 -0.369619 3.452252 5.841881 0.794068 3.215026 -27.740101 0.050565 0.834672 -6.933878 -0.000001 0.000000 0.000001 9.275366 9.165954 -5.200127 3.080260 17.459369 0.296988 -4.696979 -5.698107 3.520258 0.000001 -0.000000 0.000002 -0.794583 2.535642 13.623661 1.056415 3.670049 -32.107049 0.035387 0.698551 -5.798580 -0.000001 0.000000 0.000000 0.265722 4.437264 -3.364864 0.626881 2.875280 -24.593937 0.039320 0.736276 -6.113095 0.000000 0.000000 0.000001 1.677044 9.153102 -10.730599 0.517612 -1.446759 -22.684793 0.021214 0.541264 -4.489739 0.000000 0.000000 0.000001 0.248967 0.020256 11.419574 25.957041 56.456455 41.576478 0.000006 22.842950 -0.000011 7.153313 4.768447 -3.169949 1.416782 -5.358971 18.362880 0.937490 -3.491948 30.047699 0.138961 -0.883131 7.355110 0.000000 0.000001 -0.000001 12.541966 -24.677047 4.186564 7.458047 -9.460381 -1.325680 -2.563482 2.277346 -2.590443 -0.000001 0.000000 -0.000002 0.866678 -4.764785 11.961752 1.376545 -4.157957 36.622105 0.069938 -0.985741 8.116412 0.000002 -0.000001 0.000001 2.240428 -6.054331 26.927630 0.534478 -2.678005 22.570179 0.127966 -0.520051 4.339749 0.000000 0.000000 0.000003 3.099478 -6.598223 35.045909 0.241555 -1.820258 15.116255 0.002579 -0.189767 1.557312 0.000001 0.000001 -0.000003 -14.154872 9.559491 4.850133 22.288268 5.565722 1.548147 -6.878292 -0.182604 -3.191181 -0.137363 0.000012 0.000001 0.000000 0.000002 0.000000 -12.317645 -12.028397 -3.194430 19.458488 0.562618 -1.913217 -5.777853 2.063365 3.194186 -0.175860 -0.000000 0.000001 -0.000000 -0.000001 -0.000000 
-0.122586 198.612808 0.328006 -1.545328 -0.223270 -1.153100 -0.015621 -1.804138 3.769797 2.307743 -0.320302 -2.079240 2.299224 -0.336401 -2.085797 -2.404725 -0.738588 1.211837 5.044839 -2.489249 5.561780 -0.000000 0.000000 -0.000000 -0.000000 0.000000 -0.000000 -0.000000 0.000000 -0.000000 1.327436 -2.255018 -3.348423 22.116793 -64.235163 -48.427397 -0.000009 -13.307670 0.000014 12.910219 -6.888415 1.863429 -0.369643 3.457121 5.836020 0.790241 3.207798 -27.671997 0.050000 0.829962 -6.894474 -0.000002 -0.000000 0.000000 9.284788 9.197772 -5.174241 3.080236 17.459360 0.296987 -4.722025 -5.742948 3.524697 0.000002 0.000001 -0.000001 -0.786929 2.565236 13.432062 1.037985 3.640531 -31.817815 0.033605 0.680855 -5.651376 -0.000002 -0.000001 0.000000 0.249145 4.416539 -3.146011 0.636030 2.895156 -24.775584 0.040782 0.749760 -6.225583 -0.000001 -0.000001 0.000001 1.611665 9.120352 -10.312446 0.537284 -1.400204 -23.102973 0.023277 0.566810 -4.702182 0.000000 0.000000 0.000000 0.162751 -0.436379 11.422041 26.346343 56.880081 41.262279 0.000020 22.848465 -0.000005 7.227272 4.700755 -3.024102 1.410607 -5.351640 18.302332 0.939562 -3.495514 30.081700 0.140418 -0.888432 7.400133 -0.000001 0.000000 -0.000003 12.545385 -24.681502 4.166730 7.423916 -9.427795 -1.314930 -2.568998 2.289554 -2.588563 -0.000001 -0.000000 -0.000003 0.854009 -4.747574 11.812620 1.385974 -4.170604 36.751913 0.071394 -0.995855 8.200342 -0.000000 -0.000000 0.000000 2.244201 -6.056286 26.971674 0.531266 -2.670267 22.501008 0.128743 -0.518599 4.328270 0.000000 0.000000 -0.000001 3.113452 -6.605318 35.178678 0.236343 -1.800907 14.951501 0.002428 -0.183999 1.510042 0.000000 0.000001 0.000002 -14.184946 9.582214 4.873693 22.299799 5.538302 1.556202 -6.883941 -0.168368 -3.195979 -0.126436 0.000005 0.000001 -0.000000 0.000002 0.000000 -12.321843 -11.980472 -3.166712 19.437743 0.501003 -1.901613 -5.766972 2.081395 3.191881 -0.173847 -0.000003 -0.000000 -0.000000 -0.000000 -0.000000 
